<mxfile host="app.diagrams.net" modified="2024-03-08T14:18:18.665Z" agent="Mozilla/5.0 (Windows NT 10.0; Win64; x64) AppleWebKit/537.36 (KHTML, like Gecko) Chrome/122.0.0.0 Safari/537.36" version="24.0.2" etag="4bBY0YNgUIfYpOkbtt0S" type="github">
  <diagram name="Page-1" id="-6b6y5ABlxM_4fnhheDl">
    <mxGraphModel>
      <root>
        <mxCell id="0" />
        <mxCell id="1" parent="0" />
      </root>
    </mxGraphModel>
  </diagram>
</mxfile>
